<?xml version="1.0" encoding="utf-8"?>
<!-- Generator: Adobe Illustrator 16.0.4, SVG Export Plug-In . SVG Version: 6.00 Build 0)  -->
<!DOCTYPE svg PUBLIC "-//W3C//DTD SVG 1.1//EN" "http://www.w3.org/Graphics/SVG/1.1/DTD/svg11.dtd">
<svg version="1.1" id="Layer_1" xmlns="http://www.w3.org/2000/svg" xmlns:xlink="http://www.w3.org/1999/xlink" x="0px" y="0px"
	 width="48px" height="48px" viewBox="0 0 48 48" enable-background="new 0 0 48 48" xml:space="preserve">
<ellipse opacity="0.19" enable-background="new    " cx="24" cy="44.7" rx="10.4" ry="3.3"/>
<g>
	<path fill-rule="evenodd" clip-rule="evenodd" fill="#ED4544" d="M7.052,15.944C7.077,8.564,13.041,1.575,21.1,0.242
		c8.864-1.469,17.143,3.864,19.316,12.569c1.172,4.687,0.414,9.159-2.328,13.154c-4.234,6.172-8.581,12.268-12.885,18.393
		c-0.805,1.146-1.64,1.144-2.448-0.006c-4.274-6.081-8.56-12.156-12.811-18.254C7.985,23.287,7.077,20.126,7.052,15.944z
		 M31.466,16.234c0.011-4.113-3.372-7.5-7.486-7.492c-4.029,0.005-7.465,3.343-7.483,7.264c-0.018,4.282,3.269,7.632,7.486,7.632
		C28.094,23.64,31.457,20.313,31.466,16.234z"/>
</g>
</svg>
