<?xml version="1.0" encoding="utf-8"?>
<!-- Generator: Adobe Illustrator 16.0.4, SVG Export Plug-In . SVG Version: 6.00 Build 0)  -->
<!DOCTYPE svg PUBLIC "-//W3C//DTD SVG 1.1//EN" "http://www.w3.org/Graphics/SVG/1.1/DTD/svg11.dtd">
<svg version="1.1" id="圖層_1" xmlns="http://www.w3.org/2000/svg" xmlns:xlink="http://www.w3.org/1999/xlink" x="0px" y="0px"
	 width="589.597px" height="159.729px" viewBox="0 0 589.597 159.729" enable-background="new 0 0 589.597 159.729"
	 xml:space="preserve">
<polygon fill="#FFFFFF" points="50.602,35.925 34.119,60.413 17.138,35.925 0,35.925 0,101.196 17.207,101.196 17.207,63.379 
	33.229,85.277 34.627,85.277 50.605,63.379 50.605,101.196 68.322,101.196 68.322,35.925 "/>
<polygon fill="#FFFFFF" points="127.447,101.195 83.156,101.195 83.156,35.925 126.726,35.925 126.726,49.017 100.873,49.017 
	100.873,60.979 125.539,60.979 125.539,74.117 100.873,74.117 100.873,88.056 127.447,88.056 "/>
<g>
	<defs>
		<rect id="SVGID_1_" width="589.597" height="159.729"/>
	</defs>
	<clipPath id="SVGID_2_">
		<use xlink:href="#SVGID_1_"  overflow="visible"/>
	</clipPath>
	<path clip-path="url(#SVGID_2_)" fill="#FFFFFF" d="M199.71,69.738c0,6.687-1.095,12.055-3.284,16.105
		c-2.191,4.05-4.769,7.331-7.736,9.842c-4.21,3.674-10.101,5.51-17.674,5.51h-31.702v-65.27h24.412c3.673,0,6.817,0.212,9.431,0.636
		c2.613,0.424,4.966,1.02,7.057,1.789c2.09,0.77,3.871,1.633,5.339,2.59c1.47,0.958,2.784,1.987,3.943,3.085
		c2.006,1.821,3.764,3.972,5.276,6.451c1.512,2.481,2.713,5.354,3.603,8.619C199.265,62.36,199.71,65.908,199.71,69.738
		 M181.697,68.89c0-5.306-0.911-9.442-2.733-12.409c-1.823-2.967-4.013-4.952-6.57-5.957c-2.557-1.005-5.164-1.507-7.82-1.507
		h-7.544V87.68h7.544c4.634,0,8.646-1.225,12.037-3.674S181.697,76.519,181.697,68.89"/>
</g>
<g>
	<defs>
		<rect id="SVGID_3_" x="210.729" y="35.925" width="17.717" height="65.271"/>
	</defs>
	<clipPath id="SVGID_4_">
		<use xlink:href="#SVGID_3_"  overflow="visible"/>
	</clipPath>
	
		<linearGradient id="SVGID_5_" gradientUnits="userSpaceOnUse" x1="0" y1="159.729" x2="1" y2="159.729" gradientTransform="matrix(0 20.5197 -20.5197 0 3497.1777 89.3071)">
		<stop  offset="0" style="stop-color:#FFFFFF"/>
		<stop  offset="1" style="stop-color:#000000"/>
	</linearGradient>
	<rect x="210.729" y="35.925" clip-path="url(#SVGID_4_)" fill="url(#SVGID_5_)" width="17.717" height="65.271"/>
</g>
<g>
	<defs>
		<rect id="SVGID_6_" width="589.597" height="159.729"/>
	</defs>
	<clipPath id="SVGID_7_">
		<use xlink:href="#SVGID_6_"  overflow="visible"/>
	</clipPath>
	<path clip-path="url(#SVGID_7_)" fill="#FFFFFF" d="M307.786,101.195h-18.14l-4.79-13.232h-25.514l-4.874,13.232h-18.14
		l25.981-65.27h19.581L307.786,101.195z M280.789,76.613l-8.604-23.829l-8.688,23.829H280.789z"/>
	<polygon clip-path="url(#SVGID_7_)" fill="#43FF46" points="396.541,51.795 375.01,51.795 375.01,101.196 357.336,101.196 
		357.336,51.795 335.806,51.795 335.806,35.925 396.541,35.925 	"/>
	<polygon clip-path="url(#SVGID_7_)" fill="#43FF46" points="451.173,101.195 406.883,101.195 406.883,35.925 450.452,35.925 
		450.452,49.017 424.599,49.017 424.599,60.979 449.266,60.979 449.266,74.117 424.599,74.117 424.599,88.056 451.173,88.056 	"/>
	<polygon clip-path="url(#SVGID_7_)" fill="#43FF46" points="589.597,101.195 571.923,101.195 571.923,75.718 545.264,75.718 
		545.264,101.195 527.548,101.195 527.548,35.925 545.264,35.925 545.264,59.896 571.923,59.896 571.923,35.925 589.597,35.925 	"/>
	<path clip-path="url(#SVGID_7_)" fill="#FFFFFF" d="M102.053,130.676c0.316,0.063,0.489,0.191,0.489,0.415
		c0,0.223-0.202,0.51-0.546,0.86c-0.114,1.627-0.229,3.157-0.344,4.624h4.592c-0.201,5.422-0.603,9.472-1.177,12.087
		c-0.114,0.511-0.229,0.988-0.345,1.403c0.862,1.084,1.665,2.232,2.44,3.444l-1.922,2.104c-0.574-0.988-1.119-1.85-1.579-2.583
		c-0.345,0.733-0.718,1.371-1.119,1.913c-0.862,1.308-2.124,2.647-3.788,4.051l-2.039-2.137c1.493-1.053,2.64-2.104,3.386-3.189
		c0.66-0.829,1.235-1.817,1.694-3.029c-0.574-0.638-1.205-1.244-1.836-1.754c-0.145,0.638-0.287,1.275-0.431,1.881l-2.354-0.988
		c0.603-2.488,1.034-4.752,1.321-6.856c0.143-1.084,0.286-2.328,0.43-3.731H96.83v-2.615h2.324c0.145-1.881,0.259-3.954,0.374-6.25
		L102.053,130.676z M103.661,139.191h-2.268c-0.143,1.403-0.286,2.711-0.43,3.923c-0.172,1.052-0.316,2.104-0.489,3.125
		c0.747,0.512,1.493,1.052,2.182,1.658C103.115,145.729,103.431,142.827,103.661,139.191 M108.828,133.833v-3.38l2.266,0.224
		c0.431,0.063,0.661,0.191,0.661,0.415c0,0.127-0.172,0.351-0.459,0.605v2.136h6.286v-3.38l2.267,0.224
		c0.402,0.063,0.631,0.191,0.631,0.415c0,0.127-0.143,0.351-0.431,0.605v2.136h2.583v2.488h-2.583v8.834h-4.161v2.615h6.744v2.487
		h-5.395c1.033,1.53,1.865,2.583,2.525,3.157c0.804,0.893,1.867,1.69,3.187,2.455l-2.469,2.615
		c-1.148-1.147-2.066-2.264-2.784-3.412c-0.603-0.893-1.206-2.041-1.808-3.444v7.494h-2.584v-7.431
		c-0.545,0.861-1.061,1.627-1.578,2.297c-0.947,1.339-2.297,2.838-4.018,4.496l-2.583-2.104c1.837-1.275,3.33-2.552,4.477-3.763
		c0.66-0.702,1.349-1.468,2.067-2.36h-5.54v-2.487h7.175v-2.615h-4.476v-8.834h-2.785v-2.488H108.828z M111.296,138.298h6.286
		v-1.979h-6.286V138.298z M111.296,142.667h6.286v-2.105h-6.286V142.667z"/>
	<path clip-path="url(#SVGID_7_)" fill="#FFFFFF" d="M179.127,131.218v8.101h1.348v5.485h-1.78v11.321
		c0,1.18-0.487,1.945-1.463,2.328c-0.746,0.254-1.492,0.414-2.239,0.414l-0.89-2.487l1.637-0.063
		c0.459-0.032,0.717-0.352,0.717-0.925v-0.894h-4.162v4.369h-2.239v-14.063h-1.894v-5.485h1.665v-8.101H179.127z M178.351,143.433
		v-1.882h-8.065v1.882h0.889H178.351z M173.644,139.319v-3.986h3.358v-1.882h-5.051v5.868H173.644z M176.457,145.665h-4.162v2.232
		h4.162V145.665z M176.457,150.034h-4.162v2.36h4.162V150.034z M177.002,137.182h-1.578v2.137h1.578V137.182z M186.187,156.252H189
		l1.464-2.997l1.922,0.446c0.344,0.063,0.545,0.223,0.545,0.414c0,0.256-0.201,0.511-0.574,0.766l-0.746,1.371h3.215v2.105h-14.58
		v-2.105h3.588c-0.345-0.829-0.718-1.626-1.119-2.359l2.152-0.511C185.441,154.403,185.871,155.36,186.187,156.252 M194.396,145.92
		H180.82v-2.138h13.576V145.92z M184.867,133.196v-2.743l1.836,0.191c0.346,0.032,0.517,0.128,0.517,0.319
		c0,0.128-0.115,0.287-0.344,0.51v1.723h1.233v-2.743l1.838,0.191c0.344,0.032,0.517,0.128,0.517,0.319
		c0,0.128-0.116,0.287-0.345,0.51v1.723h3.588v9.472h-12.313v-9.472H184.867z M193.162,152.649h-11.107v-5.485h11.107V152.649z
		 M184.867,135.205h-1.35v1.851h1.35V135.205z M184.867,138.936h-1.35v1.754h1.35V138.936z M191.008,148.886h-6.831v2.009h6.831
		V148.886z M186.876,137.054h1.233v-1.851h-1.233V137.054z M188.109,138.936h-1.233v1.754h1.233V138.936z M190.119,137.054h1.464
		v-1.851h-1.464V137.054z M191.583,138.936h-1.464v1.754h1.464V138.936z"/>
	<path clip-path="url(#SVGID_7_)" fill="#FFFFFF" d="M250.229,133.228c-0.804,0.382-1.578,0.669-2.354,0.925v5.645h4.478v2.615
		h-3.732c1.034,2.168,2.268,3.955,3.732,5.357l-2.009,2.359c-0.919-1.339-1.752-2.838-2.469-4.465v13.458h-2.468V146.75
		c-0.258,0.86-0.489,1.562-0.717,2.137c-0.632,1.595-1.492,3.284-2.527,5.007l-2.239-2.265c1.12-1.403,2.096-2.934,2.928-4.592
		c0.46-0.957,1.033-2.487,1.693-4.624h-4.075v-2.615h4.937v-4.911c-1.004,0.287-2.009,0.51-3.014,0.669l-1.693-2.614
		c1.894-0.128,3.502-0.383,4.822-0.798c1.205-0.255,2.697-0.829,4.477-1.69l1.837,2.01c0.116,0.127,0.172,0.287,0.172,0.479
		s-0.115,0.255-0.315,0.255l-0.718-0.159C250.745,133.037,250.516,133.1,250.229,133.228 M262.885,130.676
		c0.46,0.063,0.689,0.191,0.689,0.415c0,0.159-0.172,0.414-0.459,0.734v15.816c1.004-0.318,1.98-0.67,2.927-0.988v2.742
		l-2.927,0.925v8.802h-2.583v-8.004l-6.487,2.009c-0.287,0.67-0.574,0.988-0.803,0.988c-0.172,0-0.288-0.159-0.403-0.51
		l-0.918-2.839c2.87-0.638,5.74-1.435,8.611-2.327v-17.987L262.885,130.676z M258.408,144.9l-1.78,1.881
		c-1.32-1.53-2.583-2.774-3.817-3.73l1.665-1.754C255.825,142.317,257.146,143.497,258.408,144.9 M259.098,137.054l-1.809,1.882
		c-1.377-1.499-2.726-2.711-4.046-3.604l1.693-1.754C256.371,134.535,257.748,135.715,259.098,137.054"/>
	<path clip-path="url(#SVGID_7_)" fill="#FFFFFF" d="M316.595,135.459v-5.484l2.783,0.351c0.316,0.063,0.489,0.191,0.489,0.383
		c0,0.255-0.23,0.542-0.689,0.86v3.891h3.272v2.711h-3.272v6.793c1.205-0.574,2.383-1.148,3.588-1.786v2.743l-3.588,1.753v8.069
		c0,1.275-0.315,2.2-0.947,2.806c-0.518,0.606-1.865,0.926-3.989,0.926l-1.005-2.839h2.153c0.746,0,1.147-0.446,1.205-1.371v-6.314
		l-2.898,1.436c-0.287,0.701-0.546,1.021-0.776,1.021c-0.172,0-0.314-0.16-0.43-0.543l-0.918-2.838
		c1.664-0.574,3.357-1.212,5.022-1.913v-7.941h-4.362v-2.711H316.595z M328.706,134.695v-4.72l2.354,0.191
		c0.459,0.063,0.688,0.19,0.688,0.414c0,0.191-0.171,0.446-0.459,0.766v3.349h5.827v2.615h-5.827v5.103h3.301
		c0.287-0.224,0.459-0.352,0.518-0.352c0.172,0,0.373,0.096,0.574,0.287l1.291,1.371c0.173,0.191,0.259,0.383,0.259,0.574
		s-0.259,0.446-0.776,0.733c-1.176,3.859-2.497,6.729-3.931,8.611c1.492,1.275,3.415,2.519,5.712,3.73l-2.01,2.36
		c-2.238-1.34-4.105-2.711-5.539-4.082c-1.81,1.595-4.191,2.934-7.118,3.954l-1.694-2.487c1.923-0.51,3.474-1.053,4.68-1.69
		c0.89-0.479,1.692-1.021,2.382-1.626c-0.346-0.383-0.632-0.766-0.891-1.148c-1.378-1.851-2.353-4.434-2.927-7.749h-1.349v-2.487
		h4.936v-5.103h-5.481v-2.615H328.706z M330.142,151.278c0.173,0.255,0.345,0.446,0.546,0.638c0.086-0.128,0.172-0.255,0.258-0.383
		c1.005-1.435,1.952-3.636,2.812-6.633h-6.371C327.903,147.579,328.821,149.715,330.142,151.278"/>
	<path clip-path="url(#SVGID_7_)" fill="#FFFFFF" d="M395.504,138.681c0-0.255,0.028-0.479,0.028-0.733v-5.23
		c0-0.638-0.086-1.436-0.2-2.392l2.842,0.255c0.486,0.032,0.746,0.159,0.746,0.383c0,0.351-0.229,0.67-0.689,0.988v5.996
		c0,0.254-0.029,0.51-0.029,0.733h10.792v2.742H398.26c1.033,3.668,2.438,6.569,4.219,8.706c1.635,2.297,4.132,4.242,7.521,5.868
		l-2.354,2.997c-2.9-1.689-5.339-3.985-7.291-6.951c-1.147-1.69-2.181-3.764-3.042-6.251c-0.229,0.829-0.459,1.562-0.718,2.265
		c-0.89,2.264-2.497,4.465-4.821,6.569c-1.695,1.595-3.674,3.029-5.971,4.368l-2.354-2.359c2.384-1.275,4.248-2.455,5.598-3.604
		c2.152-1.722,3.645-3.476,4.507-5.262c0.889-1.85,1.492-3.986,1.779-6.347h-10.879v-2.742H395.504z"/>
	<path clip-path="url(#SVGID_7_)" fill="#FFFFFF" d="M470.453,130.74c0.287,0.128,0.431,0.287,0.431,0.479s-0.173,0.319-0.518,0.416
		c1.952,1.211,3.73,2.071,5.396,2.583c1.464,0.573,3.415,1.115,5.885,1.594l-1.779,2.742c-2.556-0.766-4.766-1.595-6.659-2.551
		c-1.608-0.798-3.215-1.818-4.793-3.094c-1.378,0.925-2.698,1.754-3.989,2.52c-1.637,0.925-4.104,2.009-7.435,3.253l-2.009-1.978
		c2.783-0.829,5.253-1.786,7.404-2.902c1.981-1.021,3.99-2.359,6.057-3.954L470.453,130.74z M478.862,139.669v8.483h-2.469v-0.733
		h-15.929v0.733h-2.469v-8.483H478.862z M476.624,149.013v9.982h-2.584v-0.894h-11.108v1.021h-2.583v-10.109H476.624z
		 M463.105,145.155c-0.287-0.893-0.604-1.722-0.947-2.487l2.009-0.511c0.459,1.053,0.832,2.041,1.119,2.998h1.808v-3.221h-6.629
		v3.221H463.105z M474.04,151.023h-11.107v1.754h11.107V151.023z M474.04,154.626h-11.107v1.499h11.107V154.626z M473.467,138.17
		h-10.305v-1.977h10.305V138.17z M471.113,145.155l1.464-2.998l1.664,0.895c0.229,0.126,0.345,0.254,0.345,0.382
		c0,0.255-0.144,0.446-0.431,0.605l-0.688,1.116h2.927v-3.221h-7.061v3.221H471.113z"/>
</g>
<g>
	<defs>
		<rect id="SVGID_8_" x="357.336" y="51.827" width="17.674" height="49.369"/>
	</defs>
	<clipPath id="SVGID_9_">
		<use xlink:href="#SVGID_8_"  overflow="visible"/>
	</clipPath>
	
		<linearGradient id="SVGID_10_" gradientUnits="userSpaceOnUse" x1="0" y1="159.729" x2="1" y2="159.729" gradientTransform="matrix(0 -21.3437 -21.3437 0 3775.3875 66.0415)">
		<stop  offset="0" style="stop-color:#43FF46"/>
		<stop  offset="1" style="stop-color:#000000"/>
	</linearGradient>
	<rect x="357.336" y="51.827" clip-path="url(#SVGID_9_)" fill="url(#SVGID_10_)" width="17.674" height="49.369"/>
</g>
<g>
	<defs>
		<rect id="SVGID_11_" width="589.597" height="159.729"/>
	</defs>
	<clipPath id="SVGID_12_">
		<use xlink:href="#SVGID_11_"  overflow="visible"/>
	</clipPath>
	<polygon clip-path="url(#SVGID_12_)" fill="#43FF46" points="424.588,51.868 424.599,51.868 424.599,49.017 450.452,49.017 
		450.452,35.925 424.588,35.925 	"/>
</g>
<g>
	<defs>
		<polygon id="SVGID_13_" points="424.588,59.202 424.588,76.368 424.598,76.368 424.598,74.117 449.266,74.117 449.266,60.978 
			424.598,60.978 424.598,59.202 		"/>
	</defs>
	<clipPath id="SVGID_14_">
		<use xlink:href="#SVGID_13_"  overflow="visible"/>
	</clipPath>
	
		<linearGradient id="SVGID_15_" gradientUnits="userSpaceOnUse" x1="0" y1="159.729" x2="1" y2="159.729" gradientTransform="matrix(-14.3343 0 0 14.3343 437.0156 -2221.8201)">
		<stop  offset="0" style="stop-color:#43FF46"/>
		<stop  offset="1" style="stop-color:#000000"/>
	</linearGradient>
	<rect x="424.588" y="59.202" clip-path="url(#SVGID_14_)" fill="url(#SVGID_15_)" width="24.678" height="17.166"/>
</g>
<g>
	<defs>
		<rect id="SVGID_16_" width="589.597" height="159.729"/>
	</defs>
	<clipPath id="SVGID_17_">
		<use xlink:href="#SVGID_16_"  overflow="visible"/>
	</clipPath>
	<polygon clip-path="url(#SVGID_17_)" fill="#43FF46" points="424.588,85.323 424.588,101.195 451.173,101.195 451.173,88.056 
		424.599,88.056 424.599,85.323 	"/>
	<polygon clip-path="url(#SVGID_17_)" fill="#FFFFFF" points="100.87,51.868 100.881,51.868 100.881,49.017 126.734,49.017 
		126.734,35.925 100.87,35.925 	"/>
</g>
<g>
	<defs>
		<polygon id="SVGID_18_" points="100.87,59.202 100.87,76.368 100.881,76.368 100.881,74.117 125.548,74.117 125.548,60.978 
			100.881,60.978 100.881,59.202 		"/>
	</defs>
	<clipPath id="SVGID_19_">
		<use xlink:href="#SVGID_18_"  overflow="visible"/>
	</clipPath>
	
		<linearGradient id="SVGID_20_" gradientUnits="userSpaceOnUse" x1="0" y1="159.729" x2="1" y2="159.729" gradientTransform="matrix(-14.3343 0 0 14.3343 113.2969 -2221.8201)">
		<stop  offset="0" style="stop-color:#FFFFFF"/>
		<stop  offset="1" style="stop-color:#000000"/>
	</linearGradient>
	<rect x="100.87" y="59.202" clip-path="url(#SVGID_19_)" fill="url(#SVGID_20_)" width="24.678" height="17.166"/>
</g>
<g>
	<defs>
		<rect id="SVGID_21_" width="589.597" height="159.729"/>
	</defs>
	<clipPath id="SVGID_22_">
		<use xlink:href="#SVGID_21_"  overflow="visible"/>
	</clipPath>
	<polygon clip-path="url(#SVGID_22_)" fill="#FFFFFF" points="100.87,85.323 100.87,101.195 127.455,101.195 127.455,88.056 
		100.881,88.056 100.881,85.323 	"/>
</g>
<g>
	<defs>
		<polygon id="SVGID_23_" points="571.917,59.275 571.917,59.895 545.258,59.895 545.258,59.275 545.255,59.275 545.255,75.815 
			545.258,75.815 545.258,75.719 571.917,75.719 571.917,75.815 571.926,75.815 571.926,59.275 		"/>
	</defs>
	<clipPath id="SVGID_24_">
		<use xlink:href="#SVGID_23_"  overflow="visible"/>
	</clipPath>
	
		<linearGradient id="SVGID_25_" gradientUnits="userSpaceOnUse" x1="0" y1="159.729" x2="1" y2="159.729" gradientTransform="matrix(-17.9861 0 0 17.9861 558.3438 -2805.356)">
		<stop  offset="0" style="stop-color:#43FF46"/>
		<stop  offset="1" style="stop-color:#000000"/>
	</linearGradient>
	<rect x="545.255" y="59.275" clip-path="url(#SVGID_24_)" fill="url(#SVGID_25_)" width="26.671" height="16.54"/>
</g>
<g>
	<defs>
		<polygon id="SVGID_26_" points="50.602,35.925 34.119,60.413 17.212,36.031 17.212,63.386 33.229,85.277 34.628,85.277 
			50.604,63.382 50.604,35.925 		"/>
	</defs>
	<clipPath id="SVGID_27_">
		<use xlink:href="#SVGID_26_"  overflow="visible"/>
	</clipPath>
	
		<linearGradient id="SVGID_28_" gradientUnits="userSpaceOnUse" x1="0" y1="159.729" x2="1" y2="159.729" gradientTransform="matrix(-14.3194 0 0 14.3194 26.2656 -2226.6184)">
		<stop  offset="0" style="stop-color:#FFFFFF"/>
		<stop  offset="1" style="stop-color:#000000"/>
	</linearGradient>
	<rect x="17.212" y="35.925" clip-path="url(#SVGID_27_)" fill="url(#SVGID_28_)" width="33.392" height="49.352"/>
</g>
<g>
	<defs>
		<path id="SVGID_29_" d="M157.036,35.925v13.092h7.538c2.656,0,5.262,0.502,7.82,1.507c2.557,1.005,4.747,2.99,6.569,5.957
			c1.823,2.966,2.734,7.104,2.734,12.409c0,0.481-0.007,0.952-0.02,1.412h18.02c0.002-0.191,0.012-0.371,0.012-0.564
			c0-3.83-0.444-7.377-1.335-10.643c-0.889-3.265-2.09-6.138-3.602-8.619c-1.511-2.479-3.271-4.629-5.276-6.451
			c-1.159-1.098-2.473-2.127-3.943-3.084c-1.469-0.958-3.249-1.821-5.34-2.591c-2.09-0.768-4.443-1.365-7.057-1.789
			c-2.613-0.424-5.757-0.636-9.43-0.636H157.036z"/>
	</defs>
	<clipPath id="SVGID_30_">
		<use xlink:href="#SVGID_29_"  overflow="visible"/>
	</clipPath>
	
		<linearGradient id="SVGID_31_" gradientUnits="userSpaceOnUse" x1="0" y1="159.729" x2="1" y2="159.729" gradientTransform="matrix(-20.3268 0 0 20.3268 173.5938 -3193.6555)">
		<stop  offset="0" style="stop-color:#FFFFFF"/>
		<stop  offset="1" style="stop-color:#000000"/>
	</linearGradient>
	<rect x="157.036" y="35.925" clip-path="url(#SVGID_30_)" fill="url(#SVGID_31_)" width="42.673" height="34.377"/>
</g>
<g>
	<defs>
		<polygon id="SVGID_32_" points="264.725,73.243 257.771,92.243 286.398,92.243 279.571,73.243 		"/>
	</defs>
	<clipPath id="SVGID_33_">
		<use xlink:href="#SVGID_32_"  overflow="visible"/>
	</clipPath>
	
		<linearGradient id="SVGID_34_" gradientUnits="userSpaceOnUse" x1="0" y1="159.5581" x2="1" y2="159.5581" gradientTransform="matrix(-6 -2 -2 6 587.6768 -875.7817)">
		<stop  offset="0" style="stop-color:#FFFFFF"/>
		<stop  offset="1" style="stop-color:#000000"/>
	</linearGradient>
	<polygon clip-path="url(#SVGID_33_)" fill="url(#SVGID_34_)" points="283.535,100.832 252.071,90.343 260.634,64.655 
		292.098,75.143 	"/>
</g>
<g>
	<defs>
		<rect id="SVGID_35_" width="589.597" height="159.729"/>
	</defs>
	<clipPath id="SVGID_36_">
		<use xlink:href="#SVGID_35_"  overflow="visible"/>
	</clipPath>
	<path clip-path="url(#SVGID_36_)" fill="#43FF46" d="M515.638,96.297c-2.431,1.413-4.917,2.543-7.46,3.392
		c-2.543,0.847-5.107,1.452-7.692,1.812c-2.586,0.36-5.263,0.541-8.031,0.541c-5.115,0-9.699-0.785-13.755-2.354
		c-4.054-1.57-7.571-3.886-10.553-6.947c-2.981-3.061-5.213-6.64-6.697-10.736c-1.482-4.098-2.224-8.595-2.224-13.493
		c0-5.619,0.875-10.54,2.627-14.763c1.752-4.223,4.203-7.731,7.354-10.525c3.15-2.794,6.739-4.858,10.766-6.193
		c4.026-1.334,8.271-2.002,12.736-2.002c6.668,0,14.227,1.649,22.675,4.945v17.33c-2.91-2.008-5.785-3.68-8.625-5.015
		c-2.84-1.334-6.182-2.001-10.023-2.001c-3.419,0-6.611,0.753-9.579,2.26c-2.967,1.507-5.354,3.658-7.163,6.452
		c-1.808,2.794-2.712,6.059-2.712,9.795c0,3.296,0.791,6.318,2.374,9.065c1.582,2.748,3.778,4.929,6.59,6.546
		c2.812,1.618,5.983,2.425,9.516,2.425c2.854,0,5.552-0.384,8.095-1.153s4.684-1.624,6.421-2.566
		c1.738-0.942,3.524-2.056,5.362-3.344V96.297z"/>
</g>
<g>
	<defs>
		<path id="SVGID_37_" d="M479.972,37.032c-4.026,1.335-7.615,3.398-10.766,6.193c-3.15,2.794-5.603,6.303-7.354,10.524
			c-1.312,3.164-2.132,6.72-2.461,10.667h18.36c0.439-1.965,1.18-3.774,2.242-5.416c1.808-2.794,4.194-4.945,7.163-6.451
			c2.967-1.507,6.159-2.261,9.578-2.261c3.842,0,7.184,0.668,10.023,2.002s5.715,3.007,8.624,5.015v-17.33
			c-8.447-3.297-16.006-4.945-22.674-4.945C488.243,35.03,483.998,35.697,479.972,37.032"/>
	</defs>
	<clipPath id="SVGID_38_">
		<use xlink:href="#SVGID_37_"  overflow="visible"/>
	</clipPath>
	
		<linearGradient id="SVGID_39_" gradientUnits="userSpaceOnUse" x1="0" y1="159.729" x2="1" y2="159.729" gradientTransform="matrix(29.031 0 0 -29.031 490.0625 4686.8296)">
		<stop  offset="0" style="stop-color:#43FF46"/>
		<stop  offset="1" style="stop-color:#000000"/>
	</linearGradient>
	<rect x="459.391" y="35.03" clip-path="url(#SVGID_38_)" fill="url(#SVGID_39_)" width="55.991" height="29.386"/>
</g>
<g>
	<defs>
		<rect id="SVGID_40_" width="589.597" height="159.729"/>
	</defs>
	<clipPath id="SVGID_41_">
		<use xlink:href="#SVGID_40_"  overflow="visible"/>
	</clipPath>
	<rect x="297.412" clip-path="url(#SVGID_41_)" fill="#FFFFFF" width="11.202" height="41.27"/>
	<rect x="282.378" y="15.034" clip-path="url(#SVGID_41_)" fill="#FFFFFF" width="41.271" height="11.202"/>
</g>
<g>
	<defs>
		<rect id="SVGID_42_" x="308.611" y="15.035" width="16.119" height="11.202"/>
	</defs>
	<clipPath id="SVGID_43_">
		<use xlink:href="#SVGID_42_"  overflow="visible"/>
	</clipPath>
	
		<linearGradient id="SVGID_44_" gradientUnits="userSpaceOnUse" x1="0" y1="159.728" x2="1" y2="159.728" gradientTransform="matrix(-8.461 0 0 -8.461 313.4297 1372.0985)">
		<stop  offset="0" style="stop-color:#FFFFFF"/>
		<stop  offset="1" style="stop-color:#000000"/>
	</linearGradient>
	<rect x="308.611" y="15.035" clip-path="url(#SVGID_43_)" fill="url(#SVGID_44_)" width="16.119" height="11.202"/>
</g>
</svg>
